<svg xmlns="http://www.w3.org/2000/svg" width="638px" height="638px" viewBox="0 0 638.1372932 638.1372932" version="1.1"
     id="svg5" xml:space="preserve" data-square-offset-x="94.37241660000001" data-square-offset-y="119.83198160000003"><defs id="defs2" style="fill: rgb(110, 160, 129);"/>
    <g id="layer1" style="fill: rgb(110, 160, 129);"><path style="fill: rgb(110, 160, 129); stroke-width: 1;" d="m 372.4214165999991 517.6879816000035 c -12.522,-2.351 -27.8245,-10.039 -41.1243,-20.64 -5.7166,-4.561 -18.7636,-17.673 -23.7413,-23.86 -20.319,-25.25 -34.591,-56.298 -40.0937,-87.201 -0.7389,-4.256 -1.1083,-8.491 -1.1472,-13.634 0,-7.112 0,-7.672 1.575,-12.047 1.8472,-5.246 1.7111,-6.016 -1.6528,-8.96 -3.111,-2.738 -4.8221,-3.403 -8.7498,-3.401 -4.6472,0 -6.786,0.98 -13.3776,6.174 -33.3077,26.173 -54.0157,47.778 -68.8515,71.809 -8.5554,13.887 -23.1968,43.908 -28.9134,59.349 -1.7694,4.76 -6.2416,18.777 -7.6999,24.072 -0.4472,1.637 -1.2638,3.431 -1.8277,3.986 -1.4,1.398 -3.6555,1.287 -5.0944,-0.247 -1.4972,-1.587 -1.3416,-2.479 2.1194,-13.084 3.3833,-10.327 7.9138,-21.157 14.0192,-33.438 2.7028,-5.462 4.9194,-10.22 4.9194,-10.568 0,-0.93 -1.8861,-2.473 -5.386,-4.406 -20.5524,-11.315 -40.9493,-41.858 -48.9408,-73.242 -5.6583,-22.273 -5.4055,-47.642 0.5833,-59.618 4.6277,-9.271 10.8498,-8.827 21.894,1.563 19.1719,18.027 36.1272,50.314 39.7632,75.741 2.275,16.028 1.225,32.445 -3.0916,47.916 -1.5749,5.641 -0.3111,4.173 4.3166,-5.042 15.6136,-31.122 32.1606,-50.274 72.4099,-83.782 12.7553,-10.617 18.1219,-15.499 18.5691,-16.853 0.2722,-0.876 -0.8945,-3.606 -4.9388,-11.501 l -5.3083,-10.35 -2.1388,0.239 c -6.2805,0.708 -21.758,-6.22 -33.5994,-15.022 -6.7666,-5.028 -20.9413,-19.114 -26.6773,-26.52 -17.8108,-22.965 -29.3217,-47.587 -34.4161,-73.567 -1.1278,-5.812 -1.575,-20.992 -0.7778,-26.94 1.5556,-11.825 5.3666,-17.818 11.3165,-17.818 6.7277,0 21.058,8.966 35.6216,22.32 28.6995,26.286 47.988,60.763 54.5018,97.417 0.7583,4.287 1.1472,9.206 1.3417,16.902 0.2916,11.243 -0.1945,16.122 -1.7306,19.437 l -0.8166,1.693 3.7721,6.901 c 2.0611,3.796 4.4916,8.59 5.3861,10.657 0.9138,2.065 1.7888,3.802 1.9444,3.858 0.1944,0.06 2.7027,-2.009 5.5999,-4.591 6.6498,-5.909 19.5024,-16.611 29.5939,-24.63 4.2777,-3.394 8.0304,-6.638 8.3415,-7.204 0.4278,-0.779 0.3306,-2.02 -0.4083,-5.111 l -0.9528,-4.084 -3.4416,-1.392 c -9.1776,-3.714 -23.0218,-17.61 -32.2383,-32.368 -9.3526,-14.945 -16.7219,-37.279 -18.5691,-56.334 -0.7,-7.28 -0.3111,-18.989 0.8166,-24.173 2.4889,-11.474 6.086,-16.72 11.472,-16.724 7.3499,0 23.0219,14.331 34.7467,31.807 11.8997,17.723 18.6663,36.399 19.6579,54.362 0.9139,16.224 -3.286,38.301 -8.2831,43.512 l -1.2639,1.326 1.0694,3.449 1.05,3.452 1.4389,-1.177 c 11.9581,-9.79 21.7968,-17.521 33.9494,-26.646 l 14.7192,-11.068 0.3305,-5.909 c 0.6611,-12.508 4.2971,-24.808 11.5498,-39.092 15.1664,-29.831 43.6714,-57.257 77.6403,-74.665 26.3079,-13.479 52.188,-19.686 78.3986,-18.807 13.3192,0.448 19.658,2.104 21.4663,5.612 1.3416,2.6 0.7194,9.986 -1.5166,17.651 -8.4971,29.252 -30.6828,58.436 -62.8434,82.638 -18.2774,13.752 -39.4132,24.931 -60.7045,32.094 -14.1553,4.764 -32.4133,8.466 -41.727,8.466 -6.6499,0 -14.4664,-1.814 -17.6747,-4.095 -0.7972,-0.577 -1.7305,-1.05 -2.0416,-1.05 -1.6917,0 -42.9909,32.602 -54.5407,43.057 l -2.7805,2.526 7.1554,0.881 c 3.9471,0.486 7.9915,1.017 9.0026,1.182 1.6917,0.28 1.925,0.156 3.2666,-1.876 5.0166,-7.589 13.5914,-13.248 24.4996,-16.166 7.1749,-1.921 13.8831,-2.52 24.4218,-2.18 16.4108,0.533 31.4605,3.821 47.6769,10.418 13.8248,5.629 26.269,13.498 35.4466,22.433 8.0693,7.865 8.8276,12.672 2.7805,17.77 -8.4776,7.146 -23.0607,12.926 -38.9465,15.435 -7.9526,1.254 -26.2495,1.246 -33.58,-0.02 -15.1664,-2.605 -28.2134,-7.781 -41.0076,-16.282 -9.372,-6.226 -15.2247,-12.458 -19.9496,-21.227 -2.3139,-4.284 -2.1194,-4.16 -8.2443,-5.478 -4.7055,-1.015 -14.0581,-2.189 -15.1859,-1.907 -2.0999,0.529 -17.733,13.354 -33.5411,27.507 l -7.8165,7.006 3.2666,0.338 c 4.6472,0.483 7.6027,1.97 10.9276,5.495 l 2.8583,3.035 2.1194,-0.497 c 3.9472,-0.92 10.9665,-0.156 16.9941,1.866 25.1607,8.422 54.5796,32.894 75.8126,63.075 14.2914,20.319 24.7718,42.758 29.3023,62.69 1.2249,5.331 1.3805,7.091 1.3999,16.022 0,9.084 0,10.309 -1.0888,12.979 -1.6333,4.318 -3.0528,6.018 -6.2805,7.523 -2.4694,1.143 -3.6944,1.351 -8.5359,1.456 -3.2861,0.08 -7.311,-0.175 -9.5665,-0.609 z m 6.4749,-21.874 c 0.1944,-0.288 -0.1945,-1.062 -0.6028,-1.721 -0.525,-0.659 -5.4833,-6.848 -11.0054,-13.753 -11.3553,-14.161 -23.6246,-30.401 -34.1827,-45.223 -3.9277,-5.516 -8.1665,-11.42 -9.411,-13.119 -1.2444,-1.698 -2.6055,-3.724 -2.9943,-4.501 l -0.7389,-1.416 3.4805,1.316 c 1.9249,0.724 6.611,2.487 10.4415,3.92 3.811,1.431 11.647,4.675 17.383,7.206 5.736,2.532 10.8303,4.527 11.3164,4.436 0.4862,-0.1 0.875,-0.63 0.875,-1.192 0,-0.809 -1.8666,-1.956 -9.0026,-5.513 -11.4137,-5.695 -18.6274,-8.75 -29.4772,-12.491 l -8.6332,-2.977 -6.0666,-7.254 c -6.9415,-8.291 -15.7692,-19.468 -16.5858,-20.982 -0.2917,-0.564 -0.4083,-1.148 -0.2722,-1.297 0.1944,-0.156 5.6971,1.952 12.347,4.674 6.6304,2.72 12.2887,4.947 12.5609,4.947 0.2722,0 0.7972,-0.346 1.1472,-0.772 0.5055,-0.617 0.5055,-0.934 0,-1.587 -1.3028,-1.561 -12.8526,-6.934 -23.3718,-10.857 -7.2138,-2.695 -7.5638,-2.979 -16.1775,-13.279 -6.2805,-7.517 -7.5638,-8.837 -8.0693,-8.33 -0.5445,0.547 3.1694,6.703 10.3637,17.146 3.8694,5.621 8.2637,12.302 9.7609,14.85 l 2.7416,4.629 1.8861,12.862 c 3.7333,25.402 5.5999,32.884 7.7971,31.061 0.9139,-0.751 0.875,-2.61 0,-7.234 -1.0111,-4.816 -4.861,-29.36 -4.861,-31.071 0,-1.151 0.2916,-0.955 2.5277,1.736 4.1416,4.984 15.1275,19.724 16.7219,22.437 1.2833,2.212 1.5167,3.268 1.8861,8.563 0.6417,9.111 2.45,25.895 3.3638,30.949 0.7778,4.342 1.6333,5.993 2.7417,5.308 0.7972,-0.492 0.6805,-2.656 -0.9917,-19.049 -1.6333,-15.769 -1.8472,-19.53 -1.0889,-19.071 0.2334,0.156 2.6833,3.422 5.4249,7.257 2.7222,3.834 6.9805,9.566 9.4499,12.737 2.4499,3.172 5.6388,7.257 7.0387,9.079 9.8971,12.78 30.9162,38.101 31.6162,38.101 0.2722,0 0.6222,-0.236 0.7972,-0.525 z m -225.085,-43.425 c 0,-0.686 -0.8166,-4.332 -1.8277,-8.102 -4.9194,-18.293 -4.861,-17.786 -3.5777,-34.525 0.4083,-5.316 0.6027,-10.004 0.4472,-10.418 -0.4083,-1.041 -2.0611,-0.947 -2.4694,0.136 -0.1945,0.492 -0.6806,4.832 -1.1083,9.646 -1.0889,12.623 -0.9139,12.399 -3.8694,4.896 -1.4194,-3.537 -6.4555,-16.271 -11.2387,-28.295 -8.536,-21.463 -18.0636,-45.993 -18.7441,-48.185 -0.5056,-1.627 -1.75,-2.564 -2.1194,-1.592 -0.3889,0.98 5.5415,17.078 16.9552,46.174 2.7222,6.934 6.9416,17.815 9.3721,24.181 2.4305,6.366 4.861,12.675 5.386,14.019 1.3805,3.533 0.4472,3.237 -5.8332,-1.84 -2.9166,-2.354 -5.9305,-4.695 -6.7082,-5.201 -1.5167,-0.994 -2.9555,-0.782 -2.9555,0.439 0,1.049 9.1192,8.993 14.2136,12.381 l 4.161,2.776 3.1111,7.877 c 1.6916,4.33 3.7527,9.901 4.5499,12.376 1.4389,4.466 2.2555,5.656 2.2555,3.253 z m 275.6202,-122.545 c 1.3805,-0.371 1.5555,-1.734 0.2333,-1.734 -2.5472,0 -24.4607,-2.232 -35.6021,-3.628 -16.9164,-2.118 -26.3857,-3.767 -50.1464,-8.717 -21.7774,-4.536 -24.9662,-5.077 -24.9662,-4.231 0,2.09 42.5048,11.608 66.8877,14.978 8.1276,1.124 27.0662,3.054 32.4133,3.301 6.9221,0.323 10.0721,0.331 11.1804,0.02 z m -187.6356,-17.433 c 0,-0.488 -6.2221,-12.744 -11.6665,-22.975 l -5.386,-10.123 0.1945,-5.149 c 0.1944,-5.559 -0.3306,-6.939 -2.3139,-6.655 -0.9139,0.136 -1.1278,0.604 -1.3416,2.982 -0.2334,2.742 -0.2723,2.791 -0.9722,1.542 -0.4084,-0.706 -2.45,-3.906 -4.55,-7.11 l -3.8305,-5.826 0.9139,-4.472 c 0.9333,-4.595 0.7389,-7.286 -0.5055,-7.286 -1.05,0 -1.9055,1.28 -2.8778,4.251 -0.8555,2.632 -0.8749,2.652 -1.536,1.396 -1.1861,-2.24 -11.3359,-17.428 -18.2192,-27.253 -7.0971,-10.14 -16.7219,-24.675 -24.1495,-36.5 -4.0055,-6.376 -6.0083,-8.583 -6.0083,-6.615 0,1.275 13.9998,23.916 24.0913,38.999 12.8136,19.115 21.7968,32.994 21.544,33.247 -0.1944,0.1 -3.7527,-2.25 -8.1081,-5.23 -11.1804,-7.632 -21.6219,-14.06 -23.4691,-14.428 -2.0027,-0.402 -2.6444,0.893 -1.1277,2.308 0.5833,0.541 4.686,3.312 9.1192,6.154 27.9218,17.924 27.9412,17.941 33.9494,28.07 5.7361,9.698 6.436,11.1 5.5611,11.1 -0.4473,0 -5.736,-3.29 -11.7637,-7.311 -10.9082,-7.291 -13.5137,-8.512 -13.5137,-6.344 0,0.61 1.2056,1.981 3.0722,3.488 4.5888,3.7 19.2691,13.432 23.0801,15.308 3.3055,1.63 3.3639,1.688 8.9054,10.185 6.6694,10.21 9.761,14.513 10.461,14.513 0.2916,0 0.525,-0.116 0.525,-0.266 z m 58.6434,-24.505 c 0,-0.325 -1.5166,-5.614 -3.3638,-11.753 l -3.3444,-11.16 0.9916,-7.156 c 1.7306,-12.316 2.3333,-20.665 1.575,-21.585 -1.4194,-1.703 -2.1194,0.389 -3.3444,9.884 -0.6611,5.047 -1.3611,10.22 -1.575,11.493 l -0.3694,2.314 -0.4861,-1.544 c -0.2722,-0.848 -2.2944,-5.94 -4.4916,-11.316 -8.6915,-21.216 -15.0497,-37.034 -19.2691,-47.845 -6.3582,-16.261 -7.0388,-17.812 -7.6804,-17.587 -0.3111,0.117 -0.5056,0.642 -0.4083,1.179 0.4666,2.835 8.8081,24.657 19.658,51.392 9.6831,23.87 10.9275,27.568 9.0415,26.841 -0.4084,-0.156 -3.0139,-1.997 -5.7944,-4.101 -6.436,-4.863 -7.0776,-5.201 -7.9137,-4.2 -0.5056,0.624 -0.4667,0.957 0.2527,1.748 1.5361,1.711 11.3165,9.38 13.4359,10.543 1.6917,0.939 2.45,1.95 4.6472,6.304 2.1971,4.332 4.4915,9.646 6.9415,15.983 0.4667,1.203 1.4972,1.596 1.4972,0.566 z m 66.1877,-36.342 c 4.4916,-3.334 9.6637,-7.137 11.5109,-8.45 l 3.3444,-2.386 5.1916,-0.04 c 10.7331,-0.06 50.2047,-6.115 52.0713,-7.981 0.6222,-0.623 0.6417,-0.901 0,-1.556 -0.9139,-1.106 -3.4027,-1.015 -13.6498,0.504 -20.6302,3.058 -30.0994,4.365 -33.9494,4.692 -3.8305,0.322 -4.0638,0.285 -3.4027,-0.525 1.6528,-2.003 29.6328,-20.654 32.7244,-21.811 1.6333,-0.612 6.8055,-1.283 16.9747,-2.201 15.0692,-1.359 30.7606,-3.877 38.441,-6.166 3.675,-1.098 4.1805,-1.481 3.6944,-2.769 -0.4278,-1.092 -2.4499,-1.036 -8.4387,0.238 -10.9276,2.317 -37.566,5.497 -42.1548,5.026 -1.4584,-0.156 -0.7584,-0.737 8.322,-6.918 11.6082,-7.91 23.5274,-15.519 35.3689,-22.592 21.9523,-13.098 49.913,-32.159 49.913,-34.022 0,-1.225 -1.3417,-0.727 -5.2111,1.941 -5.9887,4.13 -17.558,11.732 -25.1412,16.51 -7.2721,4.585 -10.947,6.784 -29.73,17.883 -12.8915,7.598 -34.2605,21.24 -45.1298,28.802 -3.9666,2.755 -9.0415,6.238 -11.3164,7.741 -2.2556,1.503 -5.6777,3.883 -7.6027,5.292 -1.9249,1.408 -3.636,2.429 -3.7916,2.268 -0.35,-0.343 9.8776,-20.29 15.2053,-29.66 2.0027,-3.531 3.6555,-6.806 3.6555,-7.276 0,-0.473 -0.4083,-1.017 -0.9139,-1.21 -1.9444,-0.762 -6.5915,6.594 -16.858,26.736 -3.5972,7.074 -7.0388,13.632 -7.6415,14.575 -0.6028,0.943 -4.55,4.554 -8.8082,8.027 -12.0165,9.829 -22.3802,19.597 -22.3802,21.097 0,1.018 2.4305,-0.436 9.6054,-5.777 z" id="path329"/></g></svg>